<svg height="125" viewBox="0 0 124.99999 125" width="125" xmlns="http://www.w3.org/2000/svg">
    <g transform="translate(0 -927.36221)">
        <path d="m .86760843 982.41367c.20962707-.6259.52335147-1.19191.86032497-1.75623.3213905-.60003.6626561-1.18876 1.0215352-1.7675.2480228-.43006.5854522-.79833.8503255-1.21644.3042546-.36169.5337112-.77162.8341479-1.13565.3963036-.45326.7342918-.9514 1.1070841-1.42254.4451305-.53978.9027808-1.06647 1.4051661-1.55496.4852459-.43785.9209456-.92406 1.3837025-1.38401.452079-.38589.897214-.77888 1.30365-1.21211.4032783-.39394.8741823-.7121 1.2994833-1.08323 1.386751-1.13182 2.851962-1.80288 4.507836-2.74468-1.059616.60159-2.115353 1.20991-3.178849 1.80479-.07254.0405.136445-.0947.205112-.14141.224425-.15267.44335-.3413.6772-.47755 1.203694-.70137 2.417307-1.38598 3.62596-2.07895-1.032479.58733-4.127202 2.35397-3.097439 1.762 1.222485-.70276 2.4447-1.40614 3.675617-2.09437.0998-.0557.213006-.0848.314889-.13684.09286-.0474.358942-.21172.268112-.16063-3.173526 1.785-4.123423 2.51-2.952852 1.63311 1.47171-1.01548 3.072815-1.92451 4.745597-2.59387.510666-.2485 1.044812-.46566 1.592628-.62183.545018-.26849 1.166291-.3381 1.754667-.48338.584186-.15038 1.152529-.32931 1.753224-.41248.577651-.16789 1.17052-.2677 1.76042-.38212.749372-.24877 1.537696-.3465 2.321159-.42137.617952-.0516 1.220065-.20285 1.838039-.26824.541941-.048 1.086499-.0504 1.63017-.0529.536588-.00089 1.073176.00066 1.609762.001.545659.0178 1.080518.15501 1.625173.21277.538283.0234 1.07341.12746 1.586889.28885.704062.18934 1.383784.45084 2.092385.62639.758488.2548 1.543788.42144 2.307194.65791.71772.15348 1.411322.38614 2.111485.60088.603823.15553 1.214197.29605 1.805399.49508.614847.22134 1.257839.35316 1.879931.54846.09643.0276.195134.0483.2893.0827.900175.32855-.350413-.077.526584.21764.270628.091.548079.14413.819343.23422.697781.27431 1.42847.47471 2.160309.64098.808254.12404 1.576524.4066 2.349694.65814.779114.30013 1.599032.46986 2.394012.7213.720796.18894 1.428785.41279 2.135083.64771.59979.23734 1.231726.35208 1.850475.52328.664569.14429 1.335152.23057 1.978436.45717.53816.21025 1.105182.29325 1.678388.33278.755468.0398 1.50108.18084 2.240909.33109.692867.14252 1.366721.33578 2.071215.4218.926108.20033 1.852803.39777 2.7846.57127 1.133312.23914 2.271978.45834 3.414367.65179.876914.12722 1.745989.30172 2.614756.47464.792808.13681 1.592797.19037 2.387079.31664.70267.119 1.414877.15156 2.12617.17014.825535.0134 1.651186.0165 2.476813.019.854136.003 1.708248-.006 2.562351-.0122.602032-.006 1.204061-.003 1.806097-.002.699814.0474 1.384777-.047 2.076074-.13643.639317-.0221 1.248003-.20912 1.875552-.31058.609932-.0784 1.224588-.15591 1.822749-.30356.72958-.15544 1.466602-.21544 2.191564-.38923.268987-.0923.56351-.0766.837164-.13926.220021-.0503.434378-.1481.65581-.20232.60361-.16061 1.227767-.22434 1.837847-.35616.63734-.13915 1.256373-.34943 1.863223-.58536.48825-.15985.95926-.35211 1.42894-.55533-6.85682 4.05449-1.17238.37034 1.2636-.67609.59938-.35981 1.24899-.62075 1.87258-.93579 1.19288-.68005 3.05659-1.71403-2.4809 1.41619-.0972.055.19317-.11237.28746-.1722.18914-.11998.41137-.28014.59277-.40794 1.3783-.92244 2.86215-1.70051 4.30318-2.50742.19315-.10815.7985-.38213.60642-.27211-1.04041.59587-2.08874 1.17814-3.13311 1.76721.39713-.24708.78633-.50869 1.16645-.78044.36214-.35374.71564-.72386 1.05344-1.10248.44301-.43612.95543-.79549 1.42549-1.20427.32871-.30322.66535-.59604.93596-.95223.38174-.34078.71221-.72785 1.07814-1.08439.23252-.17846.4039-.41337.58978-.63508 0 0 3.64988-1.55978 3.64988-1.55978l0 0c-.16682.25468-.36381.49102-.56539.71897-.19149.14623-.41363.32001-.57516.49707-.16887.18512-.26264.43744-.50723.55584-.29004.21779-.0617.0107-.271.31902-.17307.25501-.45909.43449-.67432.65051-.43049.44428-.92667.82168-1.44069 1.16825-.33115.39783-.71759.73625-1.01397 1.16065-.35276.32642-.77954.5502-1.16289.83867-1.21406.69157-2.42415 1.38996-3.64217 2.07467-.0942.053-.19667.0899-.29357.13783-1.86433.92093 4.31001-2.5358 2.45138-1.40704-.10592.0644-.21355.12574-.32032.18863-1.62772 1.14114-3.36042 2.11993-5.13773 3.02245-.63648.29924-1.26161.61816-1.88673.93935-4.059335 2.06834 10.35941-5.77449-1.285193.6772-.46757.20098-.95737.35019-1.432199.53392-.61175.22201-1.245552.39337-1.884171.52004-.621853.11328-1.242966.22575-1.851777.39792-.488706.13974-.989173.2078-1.486039.31433-.724602.14265-1.465465.19465-2.182264.38066-.614691.1134-1.229557.22151-1.849125.30482-.620458.1186-1.238916.23735-1.870841.28217-.70325.0841-1.40582.12861-2.114842.10403-.600145.001-1.200283.004-1.800428-.001-.844741-.005-1.6895-.0129-2.534261-.008-.835736.003-1.671905.0135-2.507342-.0135-.720961-.0293-1.441149-.0775-2.15142-.21088-.794107-.12107-1.599151-.1668-2.385373-.33828-.863945-.17326-1.731623-.32782-2.60008-.47711-1.130224-.22297-2.261909-.43779-3.390352-.66938-.943181-.17403-1.886602-.3468-2.830051-.51928-.700583-.11213-1.376703-.31703-2.073635-.44701-.737845-.14367-1.481954-.25033-2.234232-.28353-.592644-.0631-1.168337-.19668-1.726424-.40706-.645692-.18666-1.310043-.28103-1.962752-.43959-.632453-.15053-1.253063-.32542-1.863479-.54991-.697317-.24026-1.408695-.43209-2.113969-.64768-.80268-.23639-1.616872-.43621-2.402351-.72672-.765467-.25789-1.537427-.48739-2.334835-.62956-.738199-.19115-1.473304-.39718-2.193457-.64749-.551424-.15657-1.085184-.35264-1.628271-.53277-.632397-.17243-1.257054-.36574-1.885221-.55235-.597249-.16951-1.194761-.33719-1.792703-.50387-.69636-.22004-1.398438-.41752-2.105934-.59933-.764194-.22027-1.534097-.4213-2.296076-.64937-.708239-.19655-1.402052-.44161-2.11728-.6137-.51347-.11686-1.029621-.20782-1.55634-.23985-.530985-.0721-1.058543-.19674-1.597787-.17411-.535789-.00073-1.071596-.002-1.607372.002-.534567.007-1.070272.0189-1.60119.0868-.607969.0841-1.209168.21689-1.823729.24959-.780115.0895-1.545444.24169-2.300901.45523-.594093.13049-1.191506.24583-1.784427.38098-.582856.11473-1.145038.30341-1.725321.42957-.59108.14599-1.187043.26443-1.746333.51193-.533981.1935-1.058967.40945-1.572063.6521-.238989.10903-.480297.21242-.716992.3263-.07384.0355-.291647.14901-.220871.10784 2.505303-1.45684 4.314758-2.45717 2.982811-1.71972-1.305411.98898-.260846.21024-3.805527 2.27021-.18602.1081-.761455.40132-.575211.29359 1.021654-.59093 4.094236-2.35079 3.072647-1.75974-1.218768.70511-2.442794 1.40132-3.664191 2.10198 1.046236-.60319 2.090518-1.20968 3.138707-1.80955.0813-.0466-.161578.0952-.237862.14944-.216142.15357-.408715.32735-.639298.46242-1.196671.70097-2.396738 1.39625-3.595107 2.09438 1.057003-.60346 2.118797-1.1988 3.171007-1.81039.337433-.19614-.311063.12693-.396767.20471-.315583.28636.05836.078-.310003.31681-.06519.0422-.138228.0713-.207342.10693-.447684.33663-.836787.74783-1.329039 1.02861-.393712.45647-.822669.87965-1.299479 1.25258-.504314.41972-.889511.95678-1.400384 1.37011-.48127.49966-1.0010353.96355-1.4115003 1.52846-.411963.4318-.710376.95469-1.0877083 1.4166-.3223745.34609-.5509584.72816-.8369855 1.09709-.2826034.34237.020864-.0471-.2396806.36609-.187081.29662-.4704263.52928-.6508964.8329-.3440374.58368-.7244243 1.14645-1.0313309 1.75168-.1490805.30367-.3688242.54505-.5254026.83828-.1415239.26503-.2156491.57994-.3152676.86138 0 0-3.61786837 1.65353-3.61786837 1.65353z"/>
        <path d="m48.384373 937.50998c-.582176.10639-1.119796.16492-1.694477.32278-.502643.10994-1.010067.16097-1.471471.39745-.404037.18821-.854205.32063-1.222915.57191.229953-.19776-.845775.44075-.546861.27259 1.066796-.60012 4.264466-2.40495 3.19062-1.81724-.03804.0208-8.903128 5.04779-.454857.25734-1.464895 1.04012-3.002313 1.81873-4.605936 2.72487 1.067071-.60417 4.296933-2.3643 3.201209-1.81249-1.240531.62473-2.426055 1.35086-3.636094 2.03151-.07228.0407-.28286.17293-.210597.13223 5.065262-2.85239 3.923408-2.3725 2.752502-1.46882-.448703.28209-.895819.56612-1.303939.90443-.369426.35209-.759747.68219-1.126493 1.03688-.400942.34452-.712355.77368-1.068015 1.1606-.394351.42877-.78839.85558-1.125502 1.33036-.347674.51333-.620072 1.07075-.900979 1.62115-.324274.65286-.655572 1.30234-.988576 1.95089-.313469.52569-.60498 1.06364-.839635 1.62844-.21885.5406-.422084 1.0887-.581435 1.64943-.1543.73483-.355598 1.45874-.521963 2.19068-.211944.75978-.360857 1.53035-.442728 2.3138-.08774.58855-.208008 1.17044-.270862 1.76254-.04753.52424-.05077 1.05096-.05386 1.57688-.0024.54092.0031 1.08185-.0027 1.62276.000277.62466-.0016 1.24929-.0025 1.87394-.0046.67405.0023 1.34814-.0018 2.02218.0144.69006-.02505 1.38139.02075 2.07021.08802.72226.144028 1.44853.236203 2.17017.124868.75759.22915 1.51781.351187 2.27594.09732.82255.293171 1.62983.503433 2.43043.240249.87563.420079 1.76497.68993 2.6326.288044.94671.588648 1.88925.873609 2.83687.246781.88729.570041 1.7513.930301 2.59916.371591.8167.69643 1.65223 1.016927 2.48969.424171 1.05605.847947 2.11223 1.258533 3.17342.395797.98106.623276 2.01548.922512 3.02723.262528.78681.504438 1.5776.640268 2.39596.08392.62443.08386 1.25657.08897 1.88548.07805.74463.149358 1.48869.196178 2.23602.04183.79624.05058 1.59338.05989 2.39047.0035.66676.0036 1.33354.0063 2.00028.0054.5821.000827 1.1642-.0013 1.7462-.02418.7644.01551 1.5291-.03156 2.2926-.07395.8386-.205661 1.6688-.329315 2.5011-.149159.8907-.343341 1.7732-.568709 2.6478-.187962.7003-.353144 1.4026-.567444 2.0956-.266864.7925-.504317 1.594-.75176 2.3924-.193831.6275-.390426 1.2525-.62101 1.868-.255854.6384-.436956 1.301-.676497 1.945-.220793.5948-.507445 1.1593-.780135 1.7315-.339248.7144-.659205 1.4377-1.014962 2.1442-.406197.6963-.879163 1.3501-1.362757 1.9951-.534835.6922-1.120752 1.3454-1.715323 1.9878-.640705.6515-1.236536 1.343-1.812758 2.05-.542077.6712-1.094616 1.3349-1.729859 1.9223-1.446775 1.2401-3.152542 2.0124-4.827451 2.964 5.643171-3.588 3.257385-1.8827 2.040036-.9521-.391832.3559-.849698.6251-1.27925.9318-.0828.06-.16559.1206-.248383.1807 0 0-3.678367 1.43-3.678367 1.43l0 0c .085-.055.169998-.1094.254998-.1641.410199-.3267.856026-.5911 1.275558-.9037.2668-.255.579648-.4421.86579-.6717.07691-.062.140653-.1379.21098-.2069 1.212293-.6982 2.424587-1.3966 3.63688-2.0948-5.874461 3.368-3.119132 1.9078-1.894717.9555.660937-.5613 1.2434-1.1935 1.779677-1.8733.570854-.7101 1.146642-1.4196 1.786148-2.071.60619-.6291 1.185126-1.281 1.741791-1.9529.477116-.6267.928677-1.271 1.362459-1.9275.384661-.6902.703105-1.4107 1.031553-2.1276.253361-.5733.548452-1.1272.768783-1.714.298522-.6182.430004-1.2923.692889-1.9244.203048-.6256.468079-1.2311.626868-1.8716.305758-.7757.481789-1.5978.771053-2.3795.194618-.6969.387245-1.3895.566295-2.0904.262964-.8529.450739-1.7294.599264-2.6082.122842-.8233.257366-1.6433.3265-2.4734.08476-.7475.0277-1.5048.03279-2.2559-.002-.5821-.0063-1.164.000225-1.746.004-.6683.0065-1.3365.0069-2.0048.0025-.79299-.000403-1.5865-.03681-2.37882-.04063-.75093-.115773-1.49785-.23399-2.24094.0019-.61346.0058-1.2284-.05755-1.83948-.102261-.81048-.308572-1.59889-.574459-2.37215-.281651-1.00614-.524717-2.02661-.900974-3.00304-.395835-1.06428-.811166-2.122-1.25824-3.1663-.342073-.82446-.675895-1.65192-1.027064-2.47239-.373074-.85786-.694613-1.73983-.940162-2.64185-.292002-.94338-.579898-1.88773-.876129-2.82986-.284257-.86827-.474608-1.76004-.704293-2.64314-.230155-.80866-.43904-1.62822-.531274-2.46483-.113509-.75843-.25547-1.51176-.368657-2.27023-.120274-.72586-.120243-1.46717-.240598-2.19429-.07204-.69649-.03855-1.39626-.0435-2.09562-.004-.67344.0029-1.34692-.0018-2.02037-.0012-.62338-.0031-1.24674-.0041-1.87013-.0071-.54025-.0045-1.08059-.0055-1.62088.0013-.53669.0017-1.07396.03954-1.60962.05216-.59821.153148-1.18815.287921-1.77373.08098-.79708.207802-1.5883.434512-2.35902.157806-.73368.365141-1.45481.496613-2.19394.135445-.57588.323701-1.13883.555506-1.68394.204124-.58983.491727-1.15366.83118-1.67857.351008-.63658.672475-1.28979.994311-1.94094.270899-.56441.55273-1.12373.863579-1.66758.33622-.49392.695869-.95742 1.111693-1.38887.369663-.3765.682568-.78864 1.0297-1.18539.403303-.31441.752234-.69736 1.138084-1.03265.37891-.3754.811725-.71138 1.2917-.9505.153757-.0995.285147-.23117.442058-.32578 1.183583-.71371 2.378243-1.40938 3.572509-2.1055 2.828323-1.64858-11.3015 6.54967.657592-.33815-.989495.56881-3.922191 2.33242-2.966731 1.70938.199542-.13013.371309-.29618.562692-.43419.06821-.0492.145451-.0849.218177-.12717 1.202726-.69303 2.419439-1.36285 3.608178-2.07905 1.040072-.62662-4.216211 2.41352-3.162083 1.81027 1.202711-.68828 2.401345-1.38357 3.607832-2.06536.17509-.099.381939-.14975.547891-.26835.41667-.17266.816051-.38297 1.24435-.5296.493427-.1447.996717-.22995 1.496522-.35034.583444-.1314 1.184251-.20158 1.778055-.26308 0 0-3.227289 2.31717-3.227289 2.31717z"/>
        <path d="m93.019769 948.33586c-.582177.1064-1.119796.16492-1.694479.32279-.502642.10993-1.010066.16097-1.471469.39744-.404037.18822-.854206.32063-1.222917.57191.229954-.19776-.845775.44075-.54686.27259 1.066796-.60012 4.264466-2.40495 3.19062-1.81723-.03804.0208-8.903127 5.04778-.454856.25733-1.464896 1.04013-3.002315 1.81873-4.605938 2.72488 1.067071-.60417 4.296934-2.3643 3.201211-1.81249-1.240531.62473-2.426056 1.35086-3.636094 2.0315-.07229.0407-.28286.17293-.210597.13223 5.065261-2.85237 3.923406-2.3725 2.752501-1.46881-.448702.28208-.895819.56612-1.303938.90443-.369427.35209-.759748.68218-1.126493 1.03688-.400943.34453-.712357.77367-1.068015 1.1606-.394352.42877-.78839.85557-1.125503 1.33035-.347673.51334-.620072 1.07075-.900978 1.62115-.324275.65286-.655572 1.30234-.988576 1.9509-.31347.52569-.60498 1.06365-.839635 1.62843-.218851.54061-.422084 1.0887-.581436 1.64943-.154299.73483-.355598 1.45874-.521964 2.19068-.211942.75979-.360856 1.53036-.442728 2.3138-.08774.58855-.208006 1.17044-.270861 1.76255-.04753.52423-.05077 1.05096-.05386 1.57688-.0024.54092.0031 1.08186-.0027 1.62275.000276.62467-.0016 1.2493-.0025 1.87395-.0046.67405.0023 1.34814-.0018 2.02217.0144.69007-.02505 1.38139.02075 2.07023.08802.72226.144027 1.44852.236202 2.17015.124869.75759.229151 1.51781.351188 2.27594.09732.82256.293171 1.62984.503433 2.43043.24025.87563.42008 1.76498.689931 2.6326.288044.94671.588648 1.88925.873608 2.83687.246782.8873.570041 1.7513.930301 2.59916.371591.81671.69643 1.65223 1.016928 2.48971.42417 1.05604.847947 2.11221 1.258533 3.17341.395797.98106.623275 2.01548.922511 3.02725.262529.7868.504439 1.5776.640267 2.3959.08392.6244.08386 1.2567.08897 1.8855.07805.7446.149357 1.4886.196177 2.2359.04183.7963.05058 1.5936.05989 2.3906.0035.6667.0036 1.3335.0063 2.0003.0054.5821.000829 1.1642-.0013 1.7461-.02418.7645.01551 1.5292-.03156 2.2926-.07395.8386-.205661 1.6688-.329315 2.5011-.149159.8907-.343341 1.7731-.568709 2.6478-.187961.7002-.353144 1.4025-.567444 2.0955-.266863.7926-.504316 1.5941-.75176 2.3925-.19383.6275-.390425 1.2524-.62101 1.868-.255854.6383-.436955 1.3009-.676497 1.945-.220793.5947-.507444 1.1593-.780134 1.7315-.339249.7143-.659206 1.4376-1.014964 2.1442-.406195.6962-.879161 1.3501-1.362756 1.9951-.534836.6922-1.120752 1.3454-1.715322 1.9878-.640705.6514-1.236536 1.3429-1.812759 2.05-.542076.6712-1.094616 1.3348-1.72986 1.9222-1.446773 1.2403-3.152541 2.0125-4.827449 2.964 5.643171-3.588 3.257384-1.8827 2.040036-.952-.391833.3559-.849698.6252-1.279251.9317-.08279.06-.165589.1206-.248384.1807 0 0-3.678366 1.43-3.678366 1.43l0 0c .085-.055.169999-.1094.254999-.1641.410199-.3267.856025-.591 1.275558-.9037.266799-.255.579646-.442.865788-.6716.07691-.062.140654-.138.210981-.2069 1.212293-.6983 2.424586-1.3966 3.636881-2.0948-5.874462 3.3679-3.119133 1.9077-1.894717.9554.660936-.5613 1.2434-1.1935 1.779676-1.8733.570855-.7101 1.146642-1.4196 1.786148-2.071.606191-.6291 1.185126-1.281 1.741792-1.9528.477115-.6268.928676-1.271 1.362459-1.9276.384661-.6901.703104-1.4106 1.031553-2.1276.25336-.5732.54845-1.1271.768783-1.714.298521-.6182.430003-1.2923.692889-1.9244.203047-.6254.468079-1.231.626868-1.8716.305757-.7756.481787-1.5977.771053-2.3795.194617-.6969.387244-1.3895.566294-2.0903.262965-.853.45074-1.7294.599265-2.6083.12284-.8231.257365-1.6431.326499-2.4732.08476-.7475.0277-1.5048.03279-2.256-.002-.582-.0063-1.164.000225-1.7459.004-.6683.0065-1.3366.0069-2.0048.0025-.793-.000403-1.5866-.03681-2.3789-.04063-.751-.115774-1.4978-.23399-2.2409.0019-.6135.0058-1.2284-.05755-1.8395-.102261-.8104-.308572-1.5988-.574459-2.3721-.281651-1.0061-.524717-2.0266-.900974-3.00304-.395836-1.06428-.811167-2.12201-1.25824-3.16631-.342073-.82445-.675895-1.6519-1.027064-2.47238-.373074-.85786-.694613-1.73984-.940162-2.64186-.292003-.94338-.579898-1.88772-.87613-2.82986-.284257-.86827-.474608-1.76004-.704294-2.64312-.230154-.80867-.439038-1.62822-.531272-2.46485-.113509-.75843-.255471-1.51176-.368657-2.27022-.120274-.72587-.120244-1.46716-.240599-2.1943-.07204-.69649-.03855-1.39625-.0435-2.09561-.004-.67344.0029-1.34692-.0018-2.02037-.0012-.62338-.0031-1.24674-.0041-1.87013-.0071-.54026-.0045-1.08059-.0055-1.62088.0013-.53669.0017-1.07397.03954-1.60962.05216-.59822.153146-1.18816.287921-1.77373.08098-.79707.207801-1.5883.434511-2.35902.157806-.73369.365141-1.45481.496614-2.19395.135444-.57588.323701-1.13881.555504-1.68394.204126-.58982.491729-1.15365.831182-1.67857.351007-.63657.672473-1.28978.99431-1.94094.270899-.56439.55273-1.12373.86358-1.66758.336219-.49392.695869-.95741 1.111693-1.38887.369663-.3765.682568-.78864 1.0297-1.18538.403302-.31441.752233-.69737 1.138084-1.03265.37891-.37541.811724-.71139 1.291698-.9505.153759-.0995.285147-.23117.442059-.32579 1.183583-.71371 2.378243-1.40938 3.57251-2.10549 2.828322-1.64858-11.3015 6.54967.657591-.33815-.989495.5688-3.922192 2.33241-2.96673 1.70938.199541-.13013.371309-.29619.562691-.4342.0682-.0492.145452-.0848.218177-.12717 1.202726-.69302 2.419439-1.36285 3.608179-2.07904 1.040072-.62663-4.216212 2.41352-3.162083 1.81027 1.20271-.68829 2.401345-1.38357 3.607832-2.06536.17509-.099.381938-.14976.547889-.26836.416672-.17265.816052-.38295 1.244352-.5296.493425-.14469.996717-.22994 1.496522-.35033.583443-.13139 1.184251-.20158 1.778058-.26309 0 0-3.227293 2.31717-3.227293 2.31717z"/>
        <path d="m8.7805157 1018.5606c.209627-.6259.523352-1.1919.860325-1.7562.321391-.6001.6626573-1.1888 1.0215353-1.7676.248023-.43.585452-.7982.850326-1.2163.304255-.3618.533711-.7717.834148-1.1356.396303-.4534.734291-.9515 1.107084-1.4226.44513-.5398.902779-1.0664 1.405166-1.5549.485245-.438.920945-.9242 1.383701-1.3841.452079-.3859.897215-.779 1.303651-1.2122.403278-.3938.874183-.712 1.299484-1.0831 1.386751-1.1318 2.851961-1.8028 4.507836-2.7447-1.059617.6016-2.115355 1.2099-3.17885 1.8048-.07254.041.136444-.095.205111-.1413.224425-.1528.443351-.3414.677201-.4776 1.203694-.7015 2.417307-1.386 3.625961-2.079-1.032481.5873-4.127202 2.3539-3.09744 1.762 1.222486-.7028 2.444701-1.4061 3.675617-2.0944.0998-.056.213006-.085.314889-.1368.09286-.047.358942-.2117.268111-.1607-3.173525 1.785-4.123421 2.51-2.952851 1.6332 1.47171-1.0155 3.072816-1.9245 4.745596-2.5939.510666-.2485 1.044814-.4657 1.592629-.6218.545018-.26853 1.166291-.33814 1.754667-.48343.584185-.15038 1.152529-.32931 1.753224-.41248.57765-.16788 1.170521-.26769 1.760419-.38212.749373-.24877 1.537697-.34649 2.321161-.42135.617952-.0516 1.220065-.20286 1.838038-.26826.54194-.048 1.086499-.0504 1.630171-.053.536587-.00088 1.073174.00067 1.609762.001.545658.0178 1.080518.15502 1.625172.21278.538284.0234 1.07341.12746 1.586889.28885.704063.18934 1.383784.45084 2.092384.62639.758489.25479 1.543789.42144 2.307195.65792.71772.1535 1.411323.3861 2.111485.6009.603824.1555 1.214198.296 1.805399.4951.614848.2213 1.25784.3531 1.879931.5484.09643.028.195135.048.2893.083.900174.3286-.350414-.077.526585.2177.270626.091.548077.1441.819342.2342.697781.2743 1.42847.4747 2.160309.6409.808254.1241 1.576523.4066 2.349694.6582.779115.3001 1.599032.4699 2.394013.7213.720795.1889 1.428784.4127 2.135081.6477.599791.2374 1.231728.3521 1.850477.5233.664568.1443 1.335152.2306 1.978436.4571.538159.2103 1.105181.2932 1.678387.3328.755468.039 1.501079.1808 2.240908.3311.692867.1424 1.366721.3357 2.071215.4217.926109.2004 1.852805.3978 2.784601.5713 1.133312.2391 2.271978.4584 3.414367.6517.876913.1274 1.745988.3019 2.614756.4747.792807.1369 1.592798.1904 2.387079.3166.702671.1191 1.414877.1517 2.12617.1703.825535.014 1.651186.016 2.476813.02.854136 0 1.708248-.01 2.562352-.011.602031-.01 1.20406 0 1.806097 0 .699812.047 1.384771-.047 2.076069-.1364.639323-.023 1.248003-.2091 1.875553-.3106.609943-.078 1.224593-.156 1.822753-.3037.72959-.1553 1.4666-.2153 2.19156-.3892.26899-.092.56351-.077.83716-.1392.22003-.05.43439-.1481.65582-.2023.6036-.1607 1.22776-.2243 1.83784-.3562.63734-.1391 1.25636-.3494 1.86321-.5853.48827-.1598.95926-.3522 1.42895-.5554-6.85681 4.0545-1.17237.3703 1.26361-.6759.59938-.3598 1.24899-.6208 1.87258-.9359 1.19288-.68 3.05659-1.714-2.4809 1.4162-.0972.055.19316-.1123.28746-.1722.18914-.1199.41137-.2802.59277-.4078 1.3783-.9226 2.86215-1.7006 4.30318-2.5075.19315-.1082.7985-.3822.60642-.2721-1.04041.5959-2.08874 1.1781-3.13311 1.7671.39713-.247.78633-.5087 1.16645-.7804.36213-.3537.71564-.7238 1.05343-1.1025.44302-.4361.95543-.7954 1.4255-1.2042.32871-.3032.66535-.5961.93595-.9522.38174-.34083.71222-.72791 1.07815-1.08446.23252-.17845.40389-.41336.58978-.63508 0 0 3.64987-1.55976 3.64987-1.55976l0 0c-.16681.25468-.36382.49102-.56539.71896-.19148.14624-.41362.32-.57515.49707-.16887.18512-.26264.43744-.50724.55585-.29005.21778-.0617.0107-.27099.31901-.17307.25501-.45909.43449-.67432.65051-.43049.4443-.92668.8217-1.4407 1.1683-.33114.3978-.71758.7362-1.01396 1.1606-.35276.3264-.77954.5502-1.1629.8387-1.21405.6915-2.42414 1.3899-3.64216 2.0746-.0942.052-.19667.091-.29358.1378-1.86433.921 4.31002-2.5357 2.45138-1.407-.10591.064-.21354.1258-.32031.1886-1.62772 1.1413-3.36043 2.1199-5.13774 3.0225-.63648.2991-1.2616.6182-1.88673.9394-4.05933 2.0682 10.35942-5.7745-1.28518.6771-.46758.201-.95738.3502-1.43221.5338-.61174.2221-1.24554.3935-1.88417.5202-.62185.1133-1.24296.2257-1.85177.3979-.48871.1397-.98917.2077-1.48605.3143-.72459.1427-1.465463.1947-2.182263.3807-.614688.1133-1.229552.2215-1.849115.3048-.620465.1186-1.238919.2373-1.870843.2822-.703251.083-1.40582.1285-2.114842.104-.600147 0-1.200284 0-1.800428 0-.844741 0-1.6895-.013-2.534262-.01-.835736 0-1.671905.014-2.507343-.014-.720961-.029-1.441147-.077-2.15142-.2108-.794105-.1211-1.599151-.1668-2.385372-.3383-.863945-.1733-1.731622-.3278-2.600079-.4772-1.130224-.2229-2.261909-.4377-3.390353-.6693-.94318-.174-1.886602-.3468-2.830051-.5193-.700583-.1122-1.376702-.317-2.073636-.447-.737843-.1437-1.481953-.2504-2.23423-.2835-.592646-.063-1.168339-.1967-1.726424-.4071-.645692-.1867-1.310045-.281-1.962753-.4396-.632453-.1505-1.253063-.3254-1.863479-.5499-.697316-.2402-1.408696-.4321-2.113968-.6476-.802681-.2365-1.616873-.4362-2.402352-.7267-.765467-.2579-1.537426-.4874-2.334835-.6295-.7382-.1912-1.473304-.3973-2.193456-.6475-.551424-.1566-1.085185-.3527-1.628273-.5328-.632395-.1725-1.257052-.3658-1.88522-.5524-.597249-.1695-1.19476-.3372-1.792702-.5039-.69636-.22-1.398438-.4175-2.105935-.5993-.764194-.2202-1.534097-.4213-2.296075-.6493-.70824-.1966-1.402054-.4417-2.11728-.6138-.513471-.1168-1.029622-.2078-1.556341-.2398-.530985-.072-1.058543-.1967-1.597786-.1741-.535791-.0007-1.071597 0-1.607373 0-.534567.01-1.070271.019-1.60119.087-.607969.084-1.209168.2169-1.823728.2496-.780116.09-1.545445.2417-2.300902.4552-.594093.1305-1.191505.2458-1.784427.381-.582856.1147-1.145039.3034-1.72532.4296-.59108.146-1.187044.2644-1.746334.5119-.533981.1935-1.058966.4094-1.572062.6521-.23899.109-.480299.2124-.716992.3263-.07384.035-.291648.149-.220872.1079 2.505304-1.4569 4.314759-2.4572 2.982811-1.7198-1.305412.989-.260846.2102-3.805527 2.2703-.18602.1081-.761455.4013-.575211.2935 1.021655-.5909 4.094236-2.3508 3.072648-1.7597-1.21877.705-2.442795 1.4013-3.664193 2.1019 1.046237-.6031 2.090519-1.2096 3.138707-1.8095.0813-.047-.161578.095-.237861.1494-.216142.1536-.408716.3274-.639298.4625-1.196671.701-2.396738 1.3962-3.595107 2.0943 1.057003-.6035 2.118797-1.1988 3.171008-1.8103.337432-.1962-.311064.1269-.396769.2046-.315582.2865.05836.078-.310001.3168-.06519.042-.138229.072-.207343.1073-.447685.3366-.836788.7478-1.329038 1.0287-.393714.4563-.822669.8796-1.29948 1.2524-.504313.4198-.88951.9569-1.400384 1.3702-.48127.4996-1.001035.9635-1.411501 1.5284-.411961.4319-.710374.9547-1.087707 1.4166-.322374.3461-.550958.7283-.836985 1.0972-.282605.3423.02086-.047-.239681.366-.187081.2967-.470426.5293-.650896.8329-.344038.5837-.724425 1.1464-1.031331 1.7517-.149081.3037-.368825.545-.525403.8383-.141524.265-.215649.5799-.315268.8614 0 0-3.6178683 1.6535-3.6178683 1.6535z"/>
    </g>
</svg>
